<?xml version="1.0" encoding="UTF-8"?>
<svg id="Layer_1" xmlns="http://www.w3.org/2000/svg" version="1.1" viewBox="0 0 935.5 253.1">
  <!-- Generator: Adobe Illustrator 30.5.1, SVG Export Plug-In . SVG Version: 2.1.4 Build 3)  -->
  <defs>
    <style>
      .st0 {
        fill: #0878fe;
      }
    </style>
  </defs>
  <g>
    <path class="st0" d="M658.14,139.05c-.97-4.81-1.06-9.96,0-15.26l49.17.02.26,59.41c-5.04,1.45-10.17,1.24-15.72.15-.93-5.36-.23-9.15-2.97-14.65-8.62,11.89-19.88,15.64-32.8,16.17-20.55.84-37.73-10.15-43.98-29.98-4.39-13.94-4.78-29.73-1.1-43.82,6.49-24.91,28.54-36.79,53.19-34.77,21.78,1.79,41.35,13.37,42.62,38.12l-25.55.19c-.71-10.16-7.56-16.38-17.21-17.96-10.16-1.66-20.56,1.72-25.44,11.66-7.48,15.23-7.65,35.9,2.96,49.55,6.75,8.69,18.58,9.18,27.74,4.66,7.8-3.86,14.47-12.45,14.7-23.37l-25.87-.12Z"/>
    <polygon class="st0" points="372.87 138 326.99 138.43 327.29 164.95 379.17 165.14 378.82 184.05 303.36 184.02 303.36 77.42 379.73 77.45 379.86 96.38 327.19 96.46 327.09 121.29 372.84 121.34 372.87 138"/>
    <path class="st0" d="M440.85,171.95c-5.74,10.33-15.79,14.21-28.12,12.55-24.56-3.3-32.98-32.39-25.77-59.12,3.15-11.66,12.79-20.06,22.25-21.99,12.89-2.62,24.92-.18,32.21,11.92l.57-38.73,22.92.14-.09,107.19-22.75.09-1.23-12.06ZM440.33,155.26c2.77-8.52,2.33-17.76-.6-25.46-2.88-7.57-9.86-10.99-16.99-10.59-14.53.82-20.29,20.76-14.27,37.57,2.63,7.34,9.22,11.45,16.15,11.35s13.03-4.61,15.71-12.86Z"/>
    <path class="st0" d="M769.26,171.6c-4.46,9-13.16,12.67-23.42,13.24-14.18.79-26.41-6.57-27.9-19.83-1.57-13.98,6.4-26.62,21.62-27.61l29.01-1.89c3.41-6.22-2.55-16.63-9.55-17.13-10.1-.72-17.34,3.58-17.81,15.02l-20.37-.06c-1.11-13.38,6.95-25.14,20.05-28.89,10.35-2.97,21.27-2.62,31.55.45,12.07,3.61,19.86,13.92,19.92,26.67l.26,52.38-22.46.08-.91-12.42ZM769.35,146.33l-18.76.58c-7.93.25-11.43,8.94-9.21,16.01,1.77,5.65,8.9,8.19,15.98,6.37,9.92-2.56,13.28-13.02,11.99-22.96Z"/>
    <path class="st0" d="M558.51,103.48l.25,79.99-22.53.5c-.09-4.25.85-7.29-1.26-12.51-5.63,9.65-14.75,13.35-25.69,13.49-15.66.2-27.73-9.66-27.93-25.61l-.7-55.79,22.45-.02.64,49.66c.08,6.2,3.68,11.72,8.07,13.63,5.41,2.35,11.61,1.83,16.35-2.16,5.41-4.56,7.88-11.54,7.9-18.8l.13-42.34,22.3-.03Z"/>
    <path class="st0" d="M914.37,154.53l19.48.07c-1.64,17.87-17.25,29.52-35.04,30.42-25.22,1.27-42.46-16.72-42.45-41.34,0-24.13,17.58-42.47,42.4-41.29,24.65,1.17,40.89,22.7,35.8,47.03l-55.46-.03c-1.24,8.79,5.31,17.36,12.71,19.02,10.78,2.42,20.45-1.81,22.56-13.88ZM914.54,136.59c.25-12.58-8.61-19-18.77-18.5-9.57.47-17.08,8.41-17.01,18.59l35.78-.08Z"/>
    <path class="st0" d="M851.73,165.17c2.18,6.55.84,11.96.98,18.78l-24.63-.68c-10.17-.28-18.31-8.88-18.42-19.38l-.48-45.98-11.39-.16-.12-14.31,11.48-.45.86-17.33,21.8.04v17.42s19.32.31,19.32.31l.02,14-19.29.7,1.22,42.38c.16,5.7,10.83,7.27,18.66,4.67Z"/>
  </g>
  <g>
    <path class="st0" d="M63.13,229.32c-12.49-28.99-4.38-65.56,4.45-97.94-3.84-.97-8.5-.91-13.28.14-12.03,27.37-11.04,59.49-9.63,90.02C4.03,193.23-10.33,130.58,7.61,83.78l116.86,50.48c27.54,11.9,34.65,44.47,18.83,68.65-11.22,17.15-27,31.01-45.32,39.93-13.93,6.78-28.94.18-34.84-13.52Z"/>
    <path class="st0" d="M133.77,121.01c-19.12-6.09-35.64-13.65-53.41-21.44C97.18,62.44,126.77,15.07,165.88,8.36c28.56-4.9,36.98,50.5,25.5,83.02-8.27,23.57-32.66,37.58-57.62,29.64Z"/>
    <path class="st0" d="M67.36,93.74l-53.88-22.55c7.8-20.72,22.48-35.41,39.77-47.79C78.44,6.86,107.28-3.38,138.95,1.27c-33.38,24.24-53.42,54.48-71.6,92.46Z"/>
    <path class="st0" d="M246.01,168.39c-31.24-5.67-48.89-35.05-41.27-65.56,5.97-23.9,7.31-47.56,2.85-72.49,39.4,28.98,56.88,91.74,38.41,138.05Z"/>
    <path class="st0" d="M238.81,182.99c-19.23,47.23-75.19,75.27-126.06,69.33,20.59-13.67,36.6-31.68,50.61-52.27,6.77-9.95,14.14-18.98,25.8-23.16,16.38-5.88,34.25-3.58,49.65,6.11Z"/>
    <ellipse class="st0" cx="256.39" cy="19.84" rx="19.85" ry="19.84"/>
  </g>
</svg>