<svg width="222" height="48" viewBox="0 0 222 48" fill="none" xmlns="http://www.w3.org/2000/svg">
<rect width="222" height="48" fill="#EEEEEE"/>
<g id="Uzbek Bank Full Logos">
<rect x="-1387.5" y="-611.5" width="2368" height="827" rx="4.5" stroke="#8A38F5" stroke-dasharray="10 5"/>
<g id="Bank=Openbank" clip-path="url(#clip0_0_1)">
<path id="Vector" d="M13.803 30.7079C12.6712 30.7116 11.5557 30.4374 10.5546 29.9094C9.55341 29.3813 8.69719 28.6156 8.06104 27.6794L2.41504 31.5359C6.72154 37.8014 15.315 39.4199 21.6045 35.1299C23.0069 34.1731 24.2228 32.9684 25.1925 31.5749L19.545 27.6989C18.9031 28.6276 18.0454 29.3866 17.0455 29.9107C16.0456 30.4348 14.9335 30.7084 13.8045 30.7079" fill="#62B06F"/>
<path id="Vector_2" d="M44.8905 37.389C41.3205 37.389 38.2245 35.9595 36.996 33.8145H36.846C36.9405 34.5495 36.9585 35.2995 36.9405 36.0525V43.41C36.9428 43.9523 36.7818 44.4827 36.4784 44.9322C36.175 45.3817 35.7433 45.7294 35.2395 45.93L30.027 48V10.956H36.45V12.141C36.45 12.8745 36.432 13.59 36.3555 14.3235H36.507C38.1315 11.8035 41.304 10.1655 45.195 10.1655C52.41 10.1655 57.6225 15.753 57.6225 23.7855C57.6225 31.818 52.2 37.389 44.8905 37.389ZM36.675 23.73C36.675 28.1895 39.5655 31.2555 43.626 31.2555C47.6865 31.2555 50.6325 28.1895 50.6325 23.73C50.6325 19.272 47.724 16.2045 43.644 16.2045C39.564 16.2045 36.675 19.2705 36.675 23.73ZM73.5225 37.389C65.3625 37.389 59.697 31.6515 59.697 23.787C59.697 15.9225 65.4195 10.1655 73.4265 10.1655C80.982 10.1655 86.0625 15.8655 86.0625 23.7855C86.0625 24.5205 86.0055 25.254 85.8735 25.9695H66.93C67.6665 29.337 70.0095 31.275 73.5975 31.275C76.488 31.275 78.3765 30.39 80.0565 28.245L84.0795 32.46C81.435 35.8845 77.922 37.4085 73.5405 37.4085L73.5225 37.389ZM66.912 21.549H79.2255C78.735 18.33 76.488 16.2045 73.257 16.2045C69.897 16.2045 67.6095 18.237 66.912 21.5475M99.3645 10.1655C105.727 10.1655 110.355 14.2305 110.355 20.3625V36.5985H103.405V20.175C103.422 19.1439 103.031 18.1479 102.316 17.4043C101.602 16.6608 100.622 16.23 99.591 16.206H99.42C97.0785 16.206 95.3985 17.88 95.3985 20.1765V36.6195H88.428V20.1195C88.428 14.175 92.9985 10.167 99.363 10.167M13.806 16.845C17.64 16.845 20.736 19.9485 20.757 23.7675H27.612C27.612 16.167 21.4365 10.014 13.806 10.014C6.1755 10.014 0 16.185 0 23.7855H6.855C6.855 19.9665 9.972 16.863 13.8255 16.8435L13.806 16.845ZM112.74 0.258L117.885 2.331C118.935 2.754 119.622 3.7725 119.622 4.905V12.3405C121.478 11.0105 123.684 10.3455 126.24 10.3455C128.691 10.3455 130.95 10.958 133.016 12.183C135.07 13.3617 136.775 15.066 137.954 17.121C139.174 19.17 139.81 21.5144 139.792 23.8995C139.805 26.2999 139.169 28.6592 137.954 30.729C136.755 32.7681 135.056 34.4677 133.017 35.667C130.95 36.857 128.691 37.452 126.24 37.452C123.789 37.452 121.53 36.857 119.464 35.667C117.425 34.4679 115.726 32.7683 114.526 30.729C113.343 28.6484 112.727 26.2931 112.742 23.8995L112.74 0.258ZM126.292 17.016C124.367 17.016 122.756 17.6815 121.46 19.0125C120.164 20.3085 119.517 21.9375 119.517 23.8995C119.517 25.8615 120.164 27.5075 121.46 28.8375C122.756 30.1335 124.367 30.7815 126.292 30.7815C128.219 30.7815 129.812 30.1335 131.073 28.8375C132.333 27.5065 132.963 25.8605 132.963 23.8995C132.963 21.9375 132.333 20.3085 131.073 19.0125C129.813 17.6825 128.219 17.0175 126.292 17.0175M155.358 37.4535C152.907 37.4535 150.648 36.858 148.583 35.667C146.543 34.4679 144.844 32.7683 143.645 30.729C142.429 28.6592 141.793 26.2999 141.806 23.8995C141.806 21.4475 142.419 19.188 143.645 17.121C144.823 15.066 146.528 13.3617 148.583 12.183C150.631 10.9626 152.974 10.3266 155.358 10.344C157.809 10.344 160.068 10.957 162.135 12.183C164.182 13.354 165.871 15.0613 167.019 17.121C168.24 19.17 168.876 21.5144 168.858 23.8995V36.531H162.03V34.248C161.645 35.124 160.804 35.877 159.508 36.507C158.212 37.137 156.829 37.4535 155.358 37.4535ZM155.411 30.78C157.338 30.78 158.931 30.132 160.191 28.836C161.451 27.505 162.081 25.859 162.083 23.898C162.083 21.936 161.452 20.307 160.191 19.011C158.931 17.681 157.338 17.016 155.411 17.016C153.484 17.016 151.873 17.681 150.579 19.011C149.283 20.307 148.635 21.936 148.635 23.898C148.635 25.86 149.283 27.506 150.579 28.836C151.874 30.132 153.484 30.78 155.411 30.78ZM195.91 0L200.907 1.8825C202.01 2.298 202.738 3.3525 202.738 4.5315V19.434L211.458 10.764H220.179L210.198 20.8515L222 36.507H214.383L205.575 25.1595L202.738 27.9975L202.88 36.507H196.052L195.91 0ZM182.469 10.1655C188.832 10.1655 193.46 14.229 193.46 20.3625V36.5985H186.51V20.1735C186.527 19.1424 186.135 18.1464 185.421 17.4028C184.706 16.6593 183.726 16.2285 182.695 16.2045H182.525C180.183 16.2045 178.503 17.8785 178.503 20.1735V36.618H171.533V20.118C171.533 14.172 176.103 10.1655 182.469 10.1655Z" fill="#277DDF"/>
</g>
</g>
<defs>
<clipPath id="clip0_0_1">
<rect width="222" height="48" fill="white"/>
</clipPath>
</defs>
</svg>
