<svg width="139" height="48" viewBox="0 0 139 48" fill="none" xmlns="http://www.w3.org/2000/svg">
<rect width="139" height="48" fill="#EEEEEE"/>
<g id="Uzbek Bank Full Logos">
<rect x="-766.5" y="-611.5" width="2368" height="827" rx="4.5" stroke="#8A38F5" stroke-dasharray="10 5"/>
<g id="Bank=Tenge Bank" clip-path="url(#clip0_0_1)">
<g id="2942644492496">
<g id="Group">
<path id="Vector" fill-rule="evenodd" clip-rule="evenodd" d="M23.8762 4.2406L4.21888 24.0009L23.8762 43.7594L43.5353 24.0009L23.8762 4.2406ZM39.7436 15.9789V8.05175H31.8552L23.8762 0L15.8971 8.05175H7.97906V15.9789L0 24.0009L7.97906 32.0211V39.9483H15.8971L23.8762 48L31.8552 39.9483H39.7436V32.0211L47.7227 24.0009L39.7436 15.9789ZM37.7572 32.6048V37.9832H32.4378L30.4514 39.9501L23.878 46.5871L17.3046 39.9501L15.3182 37.9832H9.9692V32.6048L7.98091 30.6063L1.40568 24.0009L7.97906 17.3937L9.96735 15.397V10.0503H15.3163L23.8762 1.41291L30.4495 8.05175L32.436 10.0484H37.7554V15.3952L39.7436 17.3918L46.317 23.9991L39.7436 30.6063L37.7554 32.6048H37.7572Z" fill="#007A5D"/>
<path id="Vector_2" fill-rule="evenodd" clip-rule="evenodd" d="M37.7572 15.3952V10.0485H32.4379L23.8762 1.41296L17.9464 7.37508L15.3163 10.0485H9.96738V15.3952L1.4057 24.001L9.96553 32.6049V37.9832H15.3145L17.9446 40.625L23.8743 46.5853L32.4342 37.9814H37.7535V32.603L46.3152 23.9991L37.7535 15.3952H37.7572ZM9.96738 29.7772L4.2189 24.001L17.9464 10.2028L18.1295 10.0485L23.8762 4.24065L29.6246 10.0485C30.9083 11.4316 31.7036 13.3056 31.7036 15.3339C31.7036 19.6674 28.1875 23.1997 23.8762 23.1997C21.7991 23.1997 19.8108 23.5697 17.9464 24.2148C14.8281 25.3209 12.0759 27.2563 9.96738 29.7772ZM29.6246 37.9832L23.8762 43.7594L18.1295 37.9832C18.0685 37.9219 18.0075 37.8587 17.9464 37.7992C16.7849 36.416 16.0506 34.6034 16.0506 32.6662C16.0506 30.729 16.7831 28.9183 17.9464 27.5351C19.3817 25.8768 21.5217 24.8004 23.8762 24.8004C29.4415 24.8004 34.4539 22.2497 37.7572 18.2248L43.5353 24.0028L37.7572 29.779L29.6246 37.9832Z" fill="#F9B101"/>
</g>
<path id="Union" d="M67.0801 25.5791C69.1607 25.5791 70.8426 27.3006 70.8428 29.3584C70.8428 31.448 69.159 33.1699 67.0801 33.1699C69.1608 33.1699 70.8426 34.8597 70.8428 36.9492C70.8428 39.0388 69.159 40.7295 67.0801 40.7295H51.7959V25.5791H67.0801ZM91.5078 40.7275H87.5332L86.3418 38.3623H77.5967L76.4062 40.7275H72.4316L79.9834 25.5771H83.9561L91.5078 40.7275ZM105.206 33.752L108.171 36.7637V25.5771H112.146V40.7275H108.171L105.206 37.7471L97.0732 29.5723V40.7275H93.0986V25.5771H97.0732L105.206 33.752ZM117.709 31.9688L126.422 25.5771H130.763L120.521 33.168L130.763 40.7275H126.422L117.709 34.3652V40.7275H113.736V25.5771H117.709V31.9688ZM55.7705 38.3623H64.9111V38.3643C65.9817 38.3641 66.8991 37.4739 66.8994 36.3662C66.8994 35.2583 65.9819 34.3674 64.9111 34.3672H55.7705V38.3623ZM78.792 35.9658H85.1523L81.9717 29.5742L78.792 35.9658ZM55.7705 31.9707H64.9111V31.9688C65.9818 31.9686 66.8992 31.0785 66.8994 29.9727C66.8994 28.8666 65.9819 27.9758 64.9111 27.9756H55.7705V31.9707ZM119.268 8.46484C120.651 8.46484 121.781 9.60247 121.781 10.9912V13.5176H117.761V10.9912H105.697V21.0947H117.761V18.5615H110.923V16.0439H121.781V21.0947C121.781 22.4853 120.651 23.6221 119.268 23.6221H104.19C102.809 23.6221 101.677 22.4853 101.677 21.0947V10.9912C101.677 9.60061 102.809 8.46484 104.19 8.46484H119.268ZM78.7695 10.8662H67.6719V14.6885H78.5312L78.5332 17.208H67.6719V21.2236H78.7695V23.6201H63.6973V8.46973H78.7695V10.8662ZM138.718 8.46973V10.8662H127.621V14.6885H138.479V17.208H127.621V21.2236H138.718V23.6201H123.646V8.46973H138.718ZM61.8271 8.46777V10.8643H55.125V23.6162H51.1504V10.876H44.377V8.40332L61.8271 8.46777ZM92.8857 16.6318L95.8525 19.6436V8.45703H99.8271V23.6064H95.8525L92.8857 20.625L84.7549 12.4502V23.6064H80.7803V8.45703H84.7549L92.8857 16.6318ZM110.923 18.5635L110.921 18.5615H110.923V18.5635Z" fill="#007A5D"/>
</g>
</g>
</g>
<defs>
<clipPath id="clip0_0_1">
<rect width="139" height="48" fill="white"/>
</clipPath>
</defs>
</svg>
